<mxfile host="app.diagrams.net" modified="2023-09-26T09:24:38.994Z" agent="Mozilla/5.0 (Windows NT 10.0; Win64; x64) AppleWebKit/537.36 (KHTML, like Gecko) Chrome/117.0.0.0 Safari/537.36 Edg/117.0.2045.41" etag="w7hp-rfQLwJBIN9Ec1Mf" version="21.8.2" type="github">
  <diagram name="第 1 页" id="ATU269OH0_GyUtcMu7u8">
    <mxGraphModel dx="998" dy="451" grid="1" gridSize="10" guides="1" tooltips="1" connect="1" arrows="1" fold="1" page="1" pageScale="1" pageWidth="1169" pageHeight="1654" math="0" shadow="0">
      <root>
        <mxCell id="0" />
        <mxCell id="1" parent="0" />
        <mxCell id="VO1IvNOE24y-Y55Ksub4-1" value="user" style="swimlane;fontStyle=1;align=center;verticalAlign=top;childLayout=stackLayout;horizontal=1;startSize=26;horizontalStack=0;resizeParent=1;resizeParentMax=0;resizeLast=0;collapsible=1;marginBottom=0;whiteSpace=wrap;html=1;hachureGap=4;fontFamily=Architects Daughter;fontSource=https%3A%2F%2Ffonts.googleapis.com%2Fcss%3Ffamily%3DArchitects%2BDaughter;fontSize=20;labelBackgroundColor=none;sketch=1;curveFitting=1;jiggle=2;" vertex="1" parent="1">
          <mxGeometry x="380" y="100" width="180" height="120" as="geometry" />
        </mxCell>
        <mxCell id="VO1IvNOE24y-Y55Ksub4-3" value="" style="line;strokeWidth=1;fillColor=none;align=left;verticalAlign=middle;spacingTop=-1;spacingLeft=3;spacingRight=3;rotatable=0;labelPosition=right;points=[];portConstraint=eastwest;hachureGap=4;fontFamily=Architects Daughter;fontSource=https%3A%2F%2Ffonts.googleapis.com%2Fcss%3Ffamily%3DArchitects%2BDaughter;fontSize=20;labelBackgroundColor=none;sketch=1;curveFitting=1;jiggle=2;" vertex="1" parent="VO1IvNOE24y-Y55Ksub4-1">
          <mxGeometry y="26" width="180" height="14" as="geometry" />
        </mxCell>
        <mxCell id="VO1IvNOE24y-Y55Ksub4-4" value="+ name()：String&lt;br&gt;+ age()：Integer&lt;br&gt;+ sex()：String" style="text;strokeColor=none;fillColor=none;align=left;verticalAlign=top;spacingLeft=4;spacingRight=4;overflow=hidden;rotatable=0;points=[[0,0.5],[1,0.5]];portConstraint=eastwest;whiteSpace=wrap;html=1;fontSize=20;fontFamily=Architects Daughter;labelBackgroundColor=none;sketch=1;curveFitting=1;jiggle=2;" vertex="1" parent="VO1IvNOE24y-Y55Ksub4-1">
          <mxGeometry y="40" width="180" height="80" as="geometry" />
        </mxCell>
        <mxCell id="VO1IvNOE24y-Y55Ksub4-8" value="student&lt;br&gt;(from Logical V...)&lt;br&gt;" style="swimlane;fontStyle=1;align=center;verticalAlign=top;childLayout=stackLayout;horizontal=1;startSize=40;horizontalStack=0;resizeParent=1;resizeParentMax=0;resizeLast=0;collapsible=1;marginBottom=0;whiteSpace=wrap;html=1;sketch=1;curveFitting=1;jiggle=2;" vertex="1" parent="1">
          <mxGeometry x="400" y="290" width="160" height="124" as="geometry" />
        </mxCell>
        <mxCell id="VO1IvNOE24y-Y55Ksub4-9" value="- sname：String&lt;br&gt;- sex ：String&lt;br&gt;- age：Integer" style="text;strokeColor=none;fillColor=none;align=left;verticalAlign=top;spacingLeft=4;spacingRight=4;overflow=hidden;rotatable=0;points=[[0,0.5],[1,0.5]];portConstraint=eastwest;whiteSpace=wrap;html=1;sketch=1;curveFitting=1;jiggle=2;" vertex="1" parent="VO1IvNOE24y-Y55Ksub4-8">
          <mxGeometry y="40" width="160" height="50" as="geometry" />
        </mxCell>
        <mxCell id="VO1IvNOE24y-Y55Ksub4-10" value="" style="line;strokeWidth=1;fillColor=none;align=left;verticalAlign=middle;spacingTop=-1;spacingLeft=3;spacingRight=3;rotatable=0;labelPosition=right;points=[];portConstraint=eastwest;strokeColor=inherit;sketch=1;curveFitting=1;jiggle=2;" vertex="1" parent="VO1IvNOE24y-Y55Ksub4-8">
          <mxGeometry y="90" width="160" height="8" as="geometry" />
        </mxCell>
        <mxCell id="VO1IvNOE24y-Y55Ksub4-11" value="+ display()" style="text;strokeColor=none;fillColor=none;align=left;verticalAlign=top;spacingLeft=4;spacingRight=4;overflow=hidden;rotatable=0;points=[[0,0.5],[1,0.5]];portConstraint=eastwest;whiteSpace=wrap;html=1;sketch=1;curveFitting=1;jiggle=2;" vertex="1" parent="VO1IvNOE24y-Y55Ksub4-8">
          <mxGeometry y="98" width="160" height="26" as="geometry" />
        </mxCell>
        <mxCell id="VO1IvNOE24y-Y55Ksub4-12" value="teacher&lt;br&gt;(from Logical View)" style="swimlane;fontStyle=1;align=center;verticalAlign=top;childLayout=stackLayout;horizontal=1;startSize=40;horizontalStack=0;resizeParent=1;resizeParentMax=0;resizeLast=0;collapsible=1;marginBottom=0;whiteSpace=wrap;html=1;sketch=1;curveFitting=1;jiggle=2;" vertex="1" parent="1">
          <mxGeometry x="170" y="210" width="160" height="126" as="geometry" />
        </mxCell>
        <mxCell id="VO1IvNOE24y-Y55Ksub4-13" value="- tname：string" style="text;strokeColor=none;fillColor=none;align=left;verticalAlign=top;spacingLeft=4;spacingRight=4;overflow=hidden;rotatable=0;points=[[0,0.5],[1,0.5]];portConstraint=eastwest;whiteSpace=wrap;html=1;sketch=1;curveFitting=1;jiggle=2;" vertex="1" parent="VO1IvNOE24y-Y55Ksub4-12">
          <mxGeometry y="40" width="160" height="20" as="geometry" />
        </mxCell>
        <mxCell id="VO1IvNOE24y-Y55Ksub4-14" value="" style="line;strokeWidth=1;fillColor=none;align=left;verticalAlign=middle;spacingTop=-1;spacingLeft=3;spacingRight=3;rotatable=0;labelPosition=right;points=[];portConstraint=eastwest;strokeColor=inherit;sketch=1;curveFitting=1;jiggle=2;" vertex="1" parent="VO1IvNOE24y-Y55Ksub4-12">
          <mxGeometry y="60" width="160" height="8" as="geometry" />
        </mxCell>
        <mxCell id="VO1IvNOE24y-Y55Ksub4-15" value="+ tname()：String&lt;br&gt;+ sex()：String&lt;br&gt;+ age()：Integer" style="text;strokeColor=none;fillColor=none;align=left;verticalAlign=top;spacingLeft=4;spacingRight=4;overflow=hidden;rotatable=0;points=[[0,0.5],[1,0.5]];portConstraint=eastwest;whiteSpace=wrap;html=1;sketch=1;curveFitting=1;jiggle=2;" vertex="1" parent="VO1IvNOE24y-Y55Ksub4-12">
          <mxGeometry y="68" width="160" height="58" as="geometry" />
        </mxCell>
        <mxCell id="VO1IvNOE24y-Y55Ksub4-16" value="system manager&lt;br&gt;(from Logical View)" style="swimlane;fontStyle=1;align=center;verticalAlign=top;childLayout=stackLayout;horizontal=1;startSize=40;horizontalStack=0;resizeParent=1;resizeParentMax=0;resizeLast=0;collapsible=1;marginBottom=0;whiteSpace=wrap;html=1;sketch=1;curveFitting=1;jiggle=2;" vertex="1" parent="1">
          <mxGeometry x="620" y="210" width="160" height="114" as="geometry" />
        </mxCell>
        <mxCell id="VO1IvNOE24y-Y55Ksub4-17" value="- mno：String&lt;br&gt;- mpass：String" style="text;strokeColor=none;fillColor=none;align=left;verticalAlign=top;spacingLeft=4;spacingRight=4;overflow=hidden;rotatable=0;points=[[0,0.5],[1,0.5]];portConstraint=eastwest;whiteSpace=wrap;html=1;sketch=1;curveFitting=1;jiggle=2;" vertex="1" parent="VO1IvNOE24y-Y55Ksub4-16">
          <mxGeometry y="40" width="160" height="40" as="geometry" />
        </mxCell>
        <mxCell id="VO1IvNOE24y-Y55Ksub4-18" value="" style="line;strokeWidth=1;fillColor=none;align=left;verticalAlign=middle;spacingTop=-1;spacingLeft=3;spacingRight=3;rotatable=0;labelPosition=right;points=[];portConstraint=eastwest;strokeColor=inherit;sketch=1;curveFitting=1;jiggle=2;" vertex="1" parent="VO1IvNOE24y-Y55Ksub4-16">
          <mxGeometry y="80" width="160" height="8" as="geometry" />
        </mxCell>
        <mxCell id="VO1IvNOE24y-Y55Ksub4-19" value="+getMno()：String" style="text;strokeColor=none;fillColor=none;align=left;verticalAlign=top;spacingLeft=4;spacingRight=4;overflow=hidden;rotatable=0;points=[[0,0.5],[1,0.5]];portConstraint=eastwest;whiteSpace=wrap;html=1;sketch=1;curveFitting=1;jiggle=2;" vertex="1" parent="VO1IvNOE24y-Y55Ksub4-16">
          <mxGeometry y="88" width="160" height="26" as="geometry" />
        </mxCell>
        <mxCell id="VO1IvNOE24y-Y55Ksub4-20" value="" style="endArrow=diamondThin;endFill=0;endSize=24;html=1;rounded=0;exitX=0;exitY=0.25;exitDx=0;exitDy=0;entryX=1.012;entryY=0.749;entryDx=0;entryDy=0;entryPerimeter=0;sketch=1;curveFitting=1;jiggle=2;" edge="1" parent="1" source="VO1IvNOE24y-Y55Ksub4-16" target="VO1IvNOE24y-Y55Ksub4-4">
          <mxGeometry width="160" relative="1" as="geometry">
            <mxPoint x="580.02" y="305.31999999999994" as="sourcePoint" />
            <mxPoint x="740.02" y="180.31999999999994" as="targetPoint" />
          </mxGeometry>
        </mxCell>
        <mxCell id="VO1IvNOE24y-Y55Ksub4-21" value="" style="endArrow=diamondThin;endFill=0;endSize=24;html=1;rounded=0;sketch=1;curveFitting=1;jiggle=2;" edge="1" parent="1" target="VO1IvNOE24y-Y55Ksub4-4">
          <mxGeometry width="160" relative="1" as="geometry">
            <mxPoint x="470" y="290" as="sourcePoint" />
            <mxPoint x="620.02" y="210.31999999999994" as="targetPoint" />
          </mxGeometry>
        </mxCell>
        <mxCell id="VO1IvNOE24y-Y55Ksub4-22" value="" style="endArrow=diamondThin;endFill=0;endSize=24;html=1;rounded=0;entryX=-0.016;entryY=0.807;entryDx=0;entryDy=0;entryPerimeter=0;sketch=1;curveFitting=1;jiggle=2;" edge="1" parent="1" target="VO1IvNOE24y-Y55Ksub4-4">
          <mxGeometry width="160" relative="1" as="geometry">
            <mxPoint x="330" y="230" as="sourcePoint" />
            <mxPoint x="360" y="210" as="targetPoint" />
          </mxGeometry>
        </mxCell>
      </root>
    </mxGraphModel>
  </diagram>
</mxfile>
